<?xml version="1.0" encoding="UTF-8" standalone="no"?><svg xmlns="http://www.w3.org/2000/svg" xmlns:xlink="http://www.w3.org/1999/xlink" contentScriptType="application/ecmascript" contentStyleType="text/css" height="488px" preserveAspectRatio="none" style="width:865px;height:488px;" version="1.1" viewBox="0 0 865 488" width="865px" zoomAndPan="magnify"><defs><filter height="300%" id="f6tf4jr" width="300%" x="-1" y="-1"><feGaussianBlur result="blurOut" stdDeviation="2.0"/><feColorMatrix in="blurOut" result="blurOut2" type="matrix" values="0 0 0 0 0 0 0 0 0 0 0 0 0 0 0 0 0 0 .4 0"/><feOffset dx="4.0" dy="4.0" in="blurOut2" result="blurOut3"/><feBlend in="SourceGraphic" in2="blurOut3" mode="normal"/></filter><filter height="1" id="bodvqdu0" width="1" x="0" y="0"><feFlood flood-color="#FFFF00" result="flood"/><feComposite in="SourceGraphic" in2="flood" operator="over"/></filter></defs><g><text fill="#888888" font-family="sans-serif" font-size="10" lengthAdjust="spacingAndGlyphs" textLength="145" x="364.5" y="10.3809">STRUTTURA DEL DATABASE</text><!--cluster core--><polygon fill="#FFFFFF" filter="url(#f6tf4jr)" points="355,354.5781,393,354.5781,400,378.1875,505,378.1875,505,481.5781,355,481.5781,355,354.5781" style="stroke: #000000; stroke-width: 2.0;"/><line style="stroke: #000000; stroke-width: 2.0;" x1="355" x2="400" y1="378.1875" y2="378.1875"/><text fill="#000000" font-family="sans-serif" font-size="14" font-weight="bold" lengthAdjust="spacingAndGlyphs" textLength="32" x="359" y="371.1113">core</text><!--cluster moduli--><polygon fill="#FFFFFF" filter="url(#f6tf4jr)" points="22,36.5781,75,36.5781,82,60.1875,671,60.1875,671,330.5781,22,330.5781,22,36.5781" style="stroke: #000000; stroke-width: 2.0;"/><line style="stroke: #000000; stroke-width: 2.0;" x1="22" x2="82" y1="60.1875" y2="60.1875"/><text fill="#000000" font-family="sans-serif" font-size="14" font-weight="bold" lengthAdjust="spacingAndGlyphs" textLength="47" x="26" y="53.1113">moduli</text><!--class core.lingua--><rect fill="#FEFECE" filter="url(#f6tf4jr)" height="74.6016" style="stroke: #A80036; stroke-width: 1.5;" width="118" x="371" y="390.5781"/><text fill="#000000" font-family="sans-serif" font-size="12" lengthAdjust="spacingAndGlyphs" textLength="38" x="411" y="408.0352">Lingua</text><line style="stroke: #A80036; stroke-width: 1.5;" x1="372" x2="488" y1="415.6719" y2="415.6719"/><text fill="#000000" font-family="sans-serif" font-size="11" font-weight="bold" lengthAdjust="spacingAndGlyphs" textLength="10" x="377" y="431.0908">id</text><text fill="#000000" font-family="sans-serif" font-size="11" lengthAdjust="spacingAndGlyphs" textLength="57" x="390" y="431.0908">CharField[2]</text><text fill="#000000" font-family="sans-serif" font-size="11" lengthAdjust="spacingAndGlyphs" textLength="94" x="377" y="444.9268">lingua CharField[20]</text><text fill="#000000" font-family="sans-serif" font-size="11" lengthAdjust="spacingAndGlyphs" textLength="106" x="377" y="458.7627">originale CharField[20]</text><!--class moduli.tipo_componente--><rect fill="#FEFECE" filter="url(#f6tf4jr)" height="74.6016" style="stroke: #A80036; stroke-width: 1.5;" width="112" x="543" y="79.0781"/><text fill="#000000" font-family="sans-serif" font-size="12" lengthAdjust="spacingAndGlyphs" textLength="96" x="551" y="96.5352">TipoComponente</text><line style="stroke: #A80036; stroke-width: 1.5;" x1="544" x2="654" y1="104.1719" y2="104.1719"/><text fill="#000000" font-family="sans-serif" font-size="11" font-weight="bold" lengthAdjust="spacingAndGlyphs" textLength="10" x="549" y="119.5908">id</text><text fill="#000000" font-family="sans-serif" font-size="11" lengthAdjust="spacingAndGlyphs" textLength="83" x="549" y="133.4268">tipo CharField[30]</text><text fill="#008000" font-family="sans-serif" font-size="11" lengthAdjust="spacingAndGlyphs" textLength="40" x="549" y="147.2627">prefisso</text><text fill="#000000" font-family="sans-serif" font-size="11" lengthAdjust="spacingAndGlyphs" textLength="57" x="592" y="147.2627">CharField[3]</text><!--class moduli.sigla--><rect fill="#FEFECE" filter="url(#f6tf4jr)" height="88.4375" style="stroke: #A80036; stroke-width: 1.5;" width="156" x="352" y="72.5781"/><text fill="#000000" font-family="sans-serif" font-size="12" lengthAdjust="spacingAndGlyphs" textLength="28" x="416" y="90.0352">Sigla</text><line style="stroke: #A80036; stroke-width: 1.5;" x1="353" x2="507" y1="97.6719" y2="97.6719"/><text fill="#000000" font-family="sans-serif" font-size="11" font-weight="bold" lengthAdjust="spacingAndGlyphs" textLength="10" x="372" y="113.0908">id</text><text fill="#008000" font-family="sans-serif" font-size="11" lengthAdjust="spacingAndGlyphs" textLength="22" x="372" y="126.9268">sigla</text><text fill="#000000" font-family="sans-serif" font-size="11" lengthAdjust="spacingAndGlyphs" textLength="57" x="397" y="126.9268">CharField[5]</text><text fill="#000000" font-family="sans-serif" font-size="11" lengthAdjust="spacingAndGlyphs" textLength="122" x="372" y="140.7627">descrizione CharField[60]</text><rect fill="none" height="6" style="stroke: #C82930; stroke-width: 1.0;" width="6" x="360" y="148.5977"/><text fill="#000000" filter="url(#bodvqdu0)" font-family="sans-serif" font-size="11" font-weight="bold" lengthAdjust="spacingAndGlyphs" text-decoration="underline" textLength="21" x="372" y="154.5986">tipo</text><line style="stroke: #000000; stroke-width: 1.0;" x1="372" x2="393" y1="156.5986" y2="156.5986"/><text fill="#000000" font-family="sans-serif" font-size="11" lengthAdjust="spacingAndGlyphs" textLength="103" x="399" y="154.5986">--&gt; [TipoComponente]</text><!--class moduli.traduzione--><rect fill="#FEFECE" filter="url(#f6tf4jr)" height="88.4375" style="stroke: #A80036; stroke-width: 1.5;" width="143" x="358.5" y="226.5781"/><text fill="#000000" font-family="sans-serif" font-size="12" lengthAdjust="spacingAndGlyphs" textLength="61" x="399.5" y="244.0352">Traduzione</text><line style="stroke: #A80036; stroke-width: 1.5;" x1="359.5" x2="500.5" y1="251.6719" y2="251.6719"/><text fill="#000000" font-family="sans-serif" font-size="11" font-weight="bold" lengthAdjust="spacingAndGlyphs" textLength="10" x="378.5" y="267.0908">id</text><rect fill="none" height="6" style="stroke: #C82930; stroke-width: 1.0;" width="6" x="366.5" y="274.9258"/><text fill="#000000" filter="url(#bodvqdu0)" font-family="sans-serif" font-size="11" font-weight="bold" lengthAdjust="spacingAndGlyphs" text-decoration="underline" textLength="26" x="378.5" y="280.9268">sigla</text><line style="stroke: #000000; stroke-width: 1.0;" x1="378.5" x2="404.5" y1="282.9268" y2="282.9268"/><text fill="#000000" font-family="sans-serif" font-size="11" lengthAdjust="spacingAndGlyphs" textLength="46" x="410.5" y="280.9268">--&gt; [Sigla]</text><rect fill="none" height="6" style="stroke: #C82930; stroke-width: 1.0;" width="6" x="366.5" y="288.7617"/><text fill="#000000" filter="url(#bodvqdu0)" font-family="sans-serif" font-size="11" font-weight="bold" lengthAdjust="spacingAndGlyphs" text-decoration="underline" textLength="33" x="378.5" y="294.7627">lingua</text><line style="stroke: #000000; stroke-width: 1.0;" x1="378.5" x2="411.5" y1="296.7627" y2="296.7627"/><text fill="#000000" font-family="sans-serif" font-size="11" lengthAdjust="spacingAndGlyphs" textLength="55" x="417.5" y="294.7627">--&gt; [Lingua]</text><text fill="#000000" font-family="sans-serif" font-size="11" lengthAdjust="spacingAndGlyphs" textLength="117" x="378.5" y="308.5986">traduzione CharField[60]</text><!--class moduli.tipo_modulo--><rect fill="#FEFECE" filter="url(#f6tf4jr)" height="60.7656" style="stroke: #A80036; stroke-width: 1.5;" width="95" x="221.5" y="86.0781"/><text fill="#000000" font-family="sans-serif" font-size="12" lengthAdjust="spacingAndGlyphs" textLength="64" x="237" y="103.5352">TipoModulo</text><line style="stroke: #A80036; stroke-width: 1.5;" x1="222.5" x2="315.5" y1="111.1719" y2="111.1719"/><text fill="#000000" font-family="sans-serif" font-size="11" font-weight="bold" lengthAdjust="spacingAndGlyphs" textLength="10" x="227.5" y="126.5908">id</text><text fill="#000000" font-family="sans-serif" font-size="11" lengthAdjust="spacingAndGlyphs" textLength="83" x="227.5" y="140.4268">tipo CharField[20]</text><!--class moduli.modulo--><rect fill="#FEFECE" filter="url(#f6tf4jr)" height="88.4375" style="stroke: #A80036; stroke-width: 1.5;" width="148" x="38" y="72.5781"/><text fill="#000000" font-family="sans-serif" font-size="12" lengthAdjust="spacingAndGlyphs" textLength="40" x="92" y="90.0352">Modulo</text><line style="stroke: #A80036; stroke-width: 1.5;" x1="39" x2="185" y1="97.6719" y2="97.6719"/><text fill="#000000" font-family="sans-serif" font-size="11" font-weight="bold" lengthAdjust="spacingAndGlyphs" textLength="10" x="58" y="113.0908">id</text><text fill="#000000" font-family="sans-serif" font-size="11" lengthAdjust="spacingAndGlyphs" textLength="63" x="71" y="113.0908">CharField[20]</text><text fill="#000000" font-family="sans-serif" font-size="11" lengthAdjust="spacingAndGlyphs" textLength="122" x="58" y="126.9268">descrizione CharField[60]</text><rect fill="none" height="6" style="stroke: #C82930; stroke-width: 1.0;" width="6" x="46" y="134.7617"/><text fill="#000000" filter="url(#bodvqdu0)" font-family="sans-serif" font-size="11" font-weight="bold" lengthAdjust="spacingAndGlyphs" text-decoration="underline" textLength="21" x="58" y="140.7627">tipo</text><line style="stroke: #000000; stroke-width: 1.0;" x1="58" x2="79" y1="142.7627" y2="142.7627"/><text fill="#000000" font-family="sans-serif" font-size="11" lengthAdjust="spacingAndGlyphs" textLength="77" x="85" y="140.7627">--&gt; [TipoModulo]</text><text fill="#000000" font-family="sans-serif" font-size="11" lengthAdjust="spacingAndGlyphs" textLength="80" x="58" y="154.5986">opzione Boolean</text><!--class moduli.sigla_in_modulo--><rect fill="#FEFECE" filter="url(#f6tf4jr)" height="88.4375" style="stroke: #A80036; stroke-width: 1.5;" width="133" x="117.5" y="226.5781"/><text fill="#000000" font-family="sans-serif" font-size="12" lengthAdjust="spacingAndGlyphs" textLength="78" x="145" y="244.0352">SiglaInModulo</text><line style="stroke: #A80036; stroke-width: 1.5;" x1="118.5" x2="249.5" y1="251.6719" y2="251.6719"/><text fill="#000000" font-family="sans-serif" font-size="11" font-weight="bold" lengthAdjust="spacingAndGlyphs" textLength="10" x="137.5" y="267.0908">id</text><rect fill="none" height="6" style="stroke: #C82930; stroke-width: 1.0;" width="6" x="125.5" y="274.9258"/><text fill="#000000" filter="url(#bodvqdu0)" font-family="sans-serif" font-size="11" font-weight="bold" lengthAdjust="spacingAndGlyphs" text-decoration="underline" textLength="42" x="137.5" y="280.9268">modulo</text><line style="stroke: #000000; stroke-width: 1.0;" x1="137.5" x2="179.5" y1="282.9268" y2="282.9268"/><text fill="#000000" font-family="sans-serif" font-size="11" lengthAdjust="spacingAndGlyphs" textLength="57" x="185.5" y="280.9268">--&gt; [Modulo]</text><rect fill="none" height="6" style="stroke: #C82930; stroke-width: 1.0;" width="6" x="125.5" y="288.7617"/><text fill="#000000" filter="url(#bodvqdu0)" font-family="sans-serif" font-size="11" font-weight="bold" lengthAdjust="spacingAndGlyphs" text-decoration="underline" textLength="26" x="137.5" y="294.7627">sigla</text><line style="stroke: #000000; stroke-width: 1.0;" x1="137.5" x2="163.5" y1="296.7627" y2="296.7627"/><text fill="#000000" font-family="sans-serif" font-size="11" lengthAdjust="spacingAndGlyphs" textLength="46" x="169.5" y="294.7627">--&gt; [Sigla]</text><text fill="#000000" font-family="sans-serif" font-size="11" lengthAdjust="spacingAndGlyphs" textLength="107" x="137.5" y="308.5986">etichetta CharField[15]</text><polygon fill="#FBFB77" filter="url(#f6tf4jr)" points="690,66.5781,690,166.3359,856,166.3359,856,76.5781,846,66.5781,690,66.5781" style="stroke: #A80036; stroke-width: 1.0;"/><line style="stroke: #A80036; stroke-width: 1.0;" x1="846" x2="846" y1="66.5781" y2="76.5781"/><line style="stroke: #A80036; stroke-width: 1.0;" x1="856" x2="846" y1="76.5781" y2="76.5781"/><text fill="#000000" font-family="sans-serif" font-size="13" lengthAdjust="spacingAndGlyphs" textLength="49" x="696" y="85.0732">Legenda</text><line style="stroke: #A80036; stroke-width: 1.0;" x1="691" x2="855" y1="87.9297" y2="87.9297"/><line style="stroke: #A80036; stroke-width: 1.0;" x1="691" x2="855" y1="89.9297" y2="89.9297"/><text fill="#000000" font-family="sans-serif" font-size="13" font-weight="bold" lengthAdjust="spacingAndGlyphs" textLength="75" x="696" y="105.4248">primary key</text><text fill="#008000" font-family="sans-serif" font-size="13" lengthAdjust="spacingAndGlyphs" textLength="38" x="696" y="121.7764">unique</text><text fill="#000000" font-family="sans-serif" font-size="13" font-style="italic" lengthAdjust="spacingAndGlyphs" textLength="44" x="696" y="138.1279">Not null</text><text fill="#000000" font-family="sans-serif" font-size="13" lengthAdjust="spacingAndGlyphs" textLength="4" x="696" y="154.4795">-</text><text fill="#000000" filter="url(#bodvqdu0)" font-family="sans-serif" font-size="13" font-weight="bold" lengthAdjust="spacingAndGlyphs" text-decoration="underline" textLength="73" x="704" y="154.4795">ForeignKey</text><line style="stroke: #000000; stroke-width: 1.0;" x1="704" x2="777" y1="156.4795" y2="156.4795"/><text fill="#000000" font-family="sans-serif" font-size="13" lengthAdjust="spacingAndGlyphs" textLength="56" x="785" y="154.4795">--&gt; [table]</text><path d="M508.229,116.5781 C513.115,116.5781 518.002,116.5781 522.888,116.5781 " fill="none" style="stroke: #A80036; stroke-width: 1.0;"/><polygon fill="none" points="522.977,109.5781,542.977,116.5781,522.977,123.5781,522.977,109.5781" style="stroke: #A80036; stroke-width: 1.0;"/><path d="M430,180.9031 C430,196.1941 430,212.1901 430,226.3201 " fill="none" style="stroke: #A80036; stroke-width: 1.0;"/><polygon fill="none" points="423,180.7291,430,160.7291,437,180.7281,423,180.7291" style="stroke: #A80036; stroke-width: 1.0;"/><path d="M430,314.8931 C430,332.1031 430,352.1331 430,370.4671 " fill="none" style="stroke: #A80036; stroke-width: 1.0;"/><polygon fill="none" points="437,370.5701,430,390.5701,423,370.5691,437,370.5701" style="stroke: #A80036; stroke-width: 1.0;"/><path d="M186.207,116.5781 C191.256,116.5781 196.305,116.5781 201.354,116.5781 " fill="none" style="stroke: #A80036; stroke-width: 1.0;"/><polygon fill="none" points="201.459,109.5781,221.459,116.5781,201.459,123.5781,201.459,109.5781" style="stroke: #A80036; stroke-width: 1.0;"/><path d="M141.01,178.8221 C148.549,194.7361 156.512,211.5481 163.509,226.3201 " fill="none" style="stroke: #A80036; stroke-width: 1.0;"/><polygon fill="none" points="134.675,181.8001,132.44,160.7291,147.328,175.8071,134.675,181.8001" style="stroke: #A80036; stroke-width: 1.0;"/><path d="M342.754,171.4861 C312.455,190.2071 278.986,210.8871 250.622,228.4131 " fill="none" style="stroke: #A80036; stroke-width: 1.0;"/><polygon fill="none" points="339.471,165.2861,360.164,160.7291,346.83,177.1961,339.471,165.2861" style="stroke: #A80036; stroke-width: 1.0;"/></g></svg>